<?xml version="1.0" encoding="UTF-8"?>
<svg width="1024px" height="1024px" viewBox="0 0 1024 1024" xmlns="http://www.w3.org/2000/svg" xmlns:xlink="http://www.w3.org/1999/xlink" version="1.1">
 <!-- Generated by Pixelmator Pro 2.1.5 -->
 <path id="Path-copy-1" d="M512.934 1024.997 L70.434 770.405 69 257.906 510.066 0 952.566 254.592 954 767.091 Z" fill="#1b1b1b" fill-opacity="1" stroke="#929292" stroke-width="5" stroke-opacity="1" stroke-linejoin="round" stroke-linecap="round"/>
 <defs>
  <linearGradient id="linear-gradient" gradientUnits="userSpaceOnUse" x1="685.047" y1="576.896" x2="158.679" y2="228.616">
   <stop offset="0" stop-color="#ec261c" stop-opacity="1"/>
   <stop offset="1" stop-color="#ffffff" stop-opacity="1"/>
  </linearGradient>
 </defs>
 <path id="football-ball-solid-copy" d="M195.616 231.753 C202.109 207.131 221.455 187.786 246.076 181.157 278.409 172.499 328.869 162.218 387.852 161 L176 373.123 C177.082 314.275 187.093 264.085 195.616 231.753 Z M827.384 761.247 C820.891 785.869 801.545 805.214 776.924 811.843 744.591 820.501 694.131 830.782 635.148 832 L847 619.877 C845.918 678.725 835.907 728.915 827.384 761.247 Z M841.318 533.567 L548.838 826.589 C369.589 800.344 212.256 666.009 181.547 459.433 L474.162 166.411 C653.411 192.656 810.744 326.991 841.318 533.567 Z M412.068 366.358 C407.874 362.165 400.974 362.165 396.781 366.358 L381.494 381.645 C377.3 385.839 377.3 392.738 381.494 396.932 L419.779 435.217 381.494 473.502 C377.3 477.696 377.3 484.595 381.494 488.789 L396.781 504.076 C400.974 508.27 407.874 508.27 412.068 504.076 L450.352 465.791 480.926 496.5 442.641 534.785 C438.448 538.979 438.448 545.878 442.641 550.072 L457.928 565.359 C462.122 569.552 469.021 569.552 473.215 565.359 L511.5 527.074 542.074 557.648 503.789 595.932 C499.595 600.126 499.595 607.026 503.789 611.219 L519.076 626.506 C523.27 630.7 530.169 630.7 534.363 626.506 L572.648 588.221 610.932 626.506 C615.126 630.7 622.026 630.7 626.219 626.506 L641.506 611.219 C645.7 607.026 645.7 600.126 641.506 595.932 L603.221 557.648 641.506 519.498 C645.7 515.304 645.7 508.405 641.506 504.211 L626.219 488.924 C622.026 484.73 615.126 484.73 610.932 488.924 L572.648 527.209 542.074 496.635 580.359 458.35 C584.552 454.157 584.552 447.257 580.359 443.064 L565.072 427.777 C560.878 423.583 553.979 423.583 549.785 427.777 L511.5 466.061 480.926 435.488 519.211 397.203 C523.405 393.009 523.405 386.11 519.211 381.916 L503.924 366.629 C499.73 362.435 492.831 362.435 488.637 366.629 L450.352 404.914 412.068 366.358 Z" fill-opacity="0.18" fill="url(#linear-gradient)" stroke="none"/>
 <path id="Path-copy" d="M322.016 878 C305.465 878 292 862.769 292 844.046 L292 475.954 C292 457.231 305.466 442 322.017 442 L543.984 442 C560.534 442 574 457.231 574 475.954 L574 844.046 C574 862.769 560.535 878 543.984 878 L322.016 878 Z M322.017 861.812 L543.984 861.812 C552.645 861.812 559.691 853.843 559.691 844.046 L559.691 475.954 C559.691 466.157 552.645 458.186 543.984 458.186 L322.017 458.186 C313.357 458.186 306.31 466.157 306.31 475.954 L306.31 844.046 C306.31 853.843 313.357 861.812 322.017 861.812 Z M486.362 837.281 C482.41 837.281 479.208 833.658 479.208 829.188 L479.208 691.677 C479.208 687.208 482.41 683.584 486.362 683.584 L527.926 683.584 C531.877 683.584 535.08 687.208 535.08 691.677 L535.08 829.188 C535.08 833.658 531.878 837.281 527.926 837.281 L486.362 837.281 Z M338.074 837.28 C334.122 837.28 330.92 833.656 330.92 829.187 L330.92 778.66 C330.92 774.19 334.122 770.567 338.074 770.567 L379.639 770.567 C383.592 770.567 386.794 774.19 386.793 778.66 L386.793 829.187 C386.793 833.656 383.591 837.28 379.639 837.28 L338.074 837.28 Z M412.219 837.28 C408.267 837.28 405.065 833.656 405.065 829.187 L405.065 778.66 C405.065 774.19 408.267 770.567 412.219 770.567 L453.782 770.567 C457.734 770.567 460.938 774.19 460.938 778.66 L460.938 829.187 C460.938 833.656 457.735 837.28 453.782 837.28 L412.219 837.28 Z M345.23 821.093 L372.485 821.093 372.485 786.753 345.23 786.753 345.23 821.093 Z M419.373 821.093 L446.628 821.093 446.628 786.753 419.373 786.753 419.373 821.093 Z M493.517 821.093 L520.771 821.093 520.771 699.771 493.517 699.771 493.517 821.093 Z M338.074 750.297 C334.122 750.297 330.92 746.674 330.92 742.204 L330.92 691.677 C330.92 687.208 334.122 683.584 338.074 683.584 L379.639 683.584 C383.592 683.584 386.794 687.208 386.793 691.677 L386.793 742.204 C386.793 746.674 383.591 750.297 379.639 750.297 L338.074 750.297 Z M412.219 750.297 C408.267 750.297 405.065 746.674 405.065 742.204 L405.065 691.677 C405.065 687.208 408.267 683.584 412.219 683.584 L453.782 683.584 C457.734 683.584 460.938 687.208 460.938 691.677 L460.938 742.204 C460.938 746.674 457.735 750.297 453.782 750.297 L412.219 750.297 Z M345.23 734.113 L372.485 734.113 372.485 699.771 345.23 699.771 345.23 734.113 Z M419.373 734.113 L446.628 734.113 446.628 699.771 419.373 699.771 419.373 734.113 Z M338.074 663.316 C334.122 663.316 330.92 659.693 330.92 655.223 L330.92 604.697 C330.92 600.227 334.122 596.604 338.074 596.604 L379.639 596.604 C383.592 596.604 386.794 600.228 386.793 604.697 L386.793 655.223 C386.793 659.693 383.591 663.316 379.639 663.316 L338.074 663.316 Z M412.219 663.316 C408.267 663.316 405.065 659.693 405.065 655.223 L405.065 604.697 C405.065 600.227 408.267 596.604 412.219 596.604 L453.782 596.604 C457.734 596.604 460.938 600.228 460.938 604.697 L460.938 655.223 C460.938 659.693 457.735 663.316 453.782 663.316 L412.219 663.316 Z M486.362 663.316 C482.41 663.316 479.208 659.693 479.208 655.223 L479.208 604.697 C479.208 600.227 482.41 596.604 486.362 596.604 L527.926 596.604 C531.877 596.604 535.08 600.228 535.08 604.697 L535.08 655.223 C535.08 659.693 531.878 663.316 527.926 663.316 L486.362 663.316 Z M345.23 647.132 L372.485 647.132 372.485 612.79 345.23 612.79 345.23 647.132 Z M419.373 647.132 L446.628 647.132 446.628 612.79 419.373 612.79 419.373 647.132 Z M493.517 647.132 L520.771 647.132 520.771 612.79 493.517 612.79 493.517 647.132 Z M338.074 571.787 C334.122 571.787 330.92 568.163 330.92 563.694 L330.92 493.591 C330.92 489.121 334.122 485.498 338.074 485.498 L527.926 485.498 C531.877 485.498 535.08 489.121 535.08 493.591 L535.08 563.694 C535.08 568.163 531.878 571.787 527.926 571.787 L338.074 571.787 Z M345.23 555.6 L520.771 555.6 520.771 501.684 345.23 501.684 345.23 555.6 Z" fill="#ffffff" fill-opacity="0.699" stroke="none"/>
 <defs>
  <text id="string" transform="matrix(1.0 0.0 0.0 1.0 437.0 498.0)" x="1.0" y="52.0" text-decoration="none" font-family="Captureit, Capture it" fill="#ec261c" font-size="57.964">GO</text>
 </defs>
 <use id="GO" xlink:href="#string"/>
 <defs>
  <text id="string-1" transform="matrix(1.0 0.0 0.0 1.0 191.0 184.0)">
   <tspan font-family="Captureit, Capture it" x="1.0" font-size="193.985" y="176.0" text-decoration="none" fill="#ffffff">cfb</tspan>
   <tspan font-family="Captureit, Capture it" x="320.3927290366773" font-size="193.985" y="176.0" text-decoration="none" fill="#ec261c">4</tspan>
   <tspan font-family="Captureit, Capture it" x="422.21573725566543" font-size="193.985" y="176.0" text-decoration="none" fill="#ffffff">th</tspan>
  </text>
 </defs>
 <use id="cfb4th" xlink:href="#string-1"/>
</svg>
